<svg width="40" height="40" viewBox="0 0 40 40" fill="none" xmlns="http://www.w3.org/2000/svg">
<path d="M39.9023 37.3863L38.2047 31.396C37.87 30.2156 37.9309 28.9531 38.4116 27.8244C39.525 25.211 40.097 22.3148 39.9875 19.2725C39.6102 8.70968 30.9275 0.191273 20.3617 0.00265154C9.02913 -0.198139 -0.198124 9.02912 0.00266679 20.3616C0.191289 30.9275 8.70969 39.6102 19.2695 39.9874C21.9284 40.0817 24.4748 39.6558 26.8204 38.804C28.6884 38.1256 30.7176 38.01 32.6282 38.5545L37.3802 39.9053C38.9166 40.3434 40.3373 38.9226 39.9023 37.3863ZM11.0644 19.9996C11.0644 15.065 15.065 11.0644 19.9996 11.0644C24.9342 11.0644 28.9348 15.065 28.9348 19.9996C28.9348 24.9342 24.9342 28.9348 19.9996 28.9348C15.065 28.9348 11.0644 24.9342 11.0644 19.9996Z" fill="url(#paint0_linear)"/>
<defs>
<linearGradient id="paint0_linear" x1="4.85168" y1="-0.000550976" x2="40.3752" y2="2.96987" gradientUnits="userSpaceOnUse">
<stop stop-color="#DF5950"/>
<stop offset="1" stop-color="#451046"/>
</linearGradient>
</defs>
</svg>
