<svg width="24" height="24" viewBox="0 0 24 24" fill="none" xmlns="http://www.w3.org/2000/svg">
<path d="M22.0575 6.9449C21.938 6.50093 21.704 6.09614 21.3789 5.77103C21.0537 5.44592 20.649 5.2119 20.205 5.0924C18.57 4.6499 12 4.6499 12 4.6499C12 4.6499 5.42998 4.6499 3.79498 5.0924C3.35101 5.2119 2.94622 5.44592 2.62111 5.77103C2.296 6.09614 2.06199 6.50093 1.94248 6.9449C1.63719 8.61235 1.48904 10.3048 1.49998 11.9999C1.48904 13.695 1.63719 15.3875 1.94248 17.0549C2.06199 17.4989 2.296 17.9037 2.62111 18.2288C2.94622 18.5539 3.35101 18.7879 3.79498 18.9074C5.42998 19.3499 12 19.3499 12 19.3499C12 19.3499 18.57 19.3499 20.205 18.9074C20.649 18.7879 21.0537 18.5539 21.3789 18.2288C21.704 17.9037 21.938 17.4989 22.0575 17.0549C22.3628 15.3875 22.5109 13.695 22.5 11.9999C22.5109 10.3048 22.3628 8.61235 22.0575 6.9449ZM9.89998 15.1499V8.8499L15.3525 11.9999L9.89998 15.1499Z" fill="white"/>
</svg>
