<svg width="100" height="100" fill="none" xmlns="http://www.w3.org/2000/svg"><path d="M9.375 9.375H12.5V12.5H9.375V9.375z" fill="url(#paint0_linear_1:217)"/><path d="M9.375 15.625H12.5v3.125H9.375v-3.125z" fill="url(#paint1_linear_1:217)"/><path d="M87.5 81.25h3.125v3.125H87.5V81.25z" fill="url(#paint2_linear_1:217)"/><path d="M87.5 87.5h3.125v3.125H87.5V87.5z" fill="url(#paint3_linear_1:217)"/><path d="M84.375 71.875H60.937a4.688 4.688 0 00-4.687 4.688v4.687h-9.375v3.125H19.531c-9.06 0-16.406-7.346-16.406-16.406 0-9.06 7.346-16.406 16.406-16.406H80.47c10.785 0 19.53-8.745 19.53-19.533 0-10.785-8.745-19.53-19.531-19.53H53.125V9.375H43.75V4.687A4.688 4.688 0 0039.062 0H15.625v3.125H0V25h15.625v3.125h23.438a4.688 4.688 0 004.687-4.688V18.75h9.375v-3.125h27.344c9.06 0 16.406 7.346 16.406 16.406 0 9.06-7.346 16.407-16.406 16.407H19.53C8.745 48.438 0 57.181 0 67.968 0 78.756 8.745 87.5 19.531 87.5h27.344v3.125h9.375v4.688A4.688 4.688 0 0060.938 100h23.437v-3.125H100V75H84.375v-3.125zm-68.75-50h-12.5V6.25h12.5v15.625zm25-12.5v14.063c0 .862-.7 1.562-1.563 1.562H18.75V3.125h20.313c.862 0 1.562.7 1.562 1.563v4.687zM50 15.625h-6.25V12.5H50v3.125zM56.25 87.5H50v-3.125h6.25V87.5zm25 9.375H60.937c-.862 0-1.562-.7-1.562-1.563v-18.75c0-.862.7-1.562 1.563-1.562H81.25v21.875zm15.625-18.75V93.75h-12.5V78.125h12.5z" fill="url(#paint4_linear_1:217)"/><defs><linearGradient id="paint0_linear_1:217" x1="9.694" y1="9.375" x2="12.39" y2="9.576" gradientUnits="userSpaceOnUse"><stop stop-color="#C89AFC"/><stop offset="1" stop-color="#7C6AFA"/></linearGradient><linearGradient id="paint1_linear_1:217" x1="9.694" y1="15.625" x2="12.39" y2="15.826" gradientUnits="userSpaceOnUse"><stop stop-color="#C89AFC"/><stop offset="1" stop-color="#7C6AFA"/></linearGradient><linearGradient id="paint2_linear_1:217" x1="87.819" y1="81.25" x2="90.515" y2="81.451" gradientUnits="userSpaceOnUse"><stop stop-color="#C89AFC"/><stop offset="1" stop-color="#7C6AFA"/></linearGradient><linearGradient id="paint3_linear_1:217" x1="87.819" y1="87.5" x2="90.515" y2="87.701" gradientUnits="userSpaceOnUse"><stop stop-color="#C89AFC"/><stop offset="1" stop-color="#7C6AFA"/></linearGradient><linearGradient id="paint4_linear_1:217" x1="10.221" y1="0" x2="96.477" y2="6.429" gradientUnits="userSpaceOnUse"><stop stop-color="#C89AFC"/><stop offset="1" stop-color="#7C6AFA"/></linearGradient></defs></svg>