<svg width="40" height="40" fill="none" xmlns="http://www.w3.org/2000/svg"><path d="M39.902 37.386l-1.697-5.99a5.375 5.375 0 01.207-3.572 19.92 19.92 0 001.575-8.552C39.61 8.71 30.927.193 20.362.003 9.029-.197-.198 9.03.002 20.363.193 30.928 8.71 39.61 19.27 39.987a19.984 19.984 0 007.55-1.183c1.868-.678 3.898-.794 5.808-.25l4.752 1.351c1.537.438 2.957-.982 2.522-2.519zM11.064 20a8.935 8.935 0 1117.871 0 8.935 8.935 0 01-17.87 0z" fill="url(#paint0_linear)"/><defs><linearGradient id="paint0_linear" x1="4.852" y1="-.001" x2="40.375" y2="2.97" gradientUnits="userSpaceOnUse"><stop stop-color="#DF5950"/><stop offset="1" stop-color="#451046"/></linearGradient></defs></svg>